<svg width="100" height="100" viewBox="0 0 100 100" fill="none" xmlns="http://www.w3.org/2000/svg">
<mask id="mask0_80_1838" style="mask-type:alpha" maskUnits="userSpaceOnUse" x="0" y="0" width="100" height="100">
<rect width="100" height="100" transform="matrix(-1 8.74228e-08 7.54979e-08 1 100 0)" fill="#D9D9D9"/>
</mask>
<g mask="url(#mask0_80_1838)">
<path d="M82.0511 73.8781C84.1559 73.8781 85.9375 73.149 87.3959 71.6906C88.8542 70.2323 89.5834 68.4507 89.5834 66.3458L89.5834 23.0771C89.5834 20.9722 88.8542 19.1906 87.3958 17.7323C85.9375 16.274 84.1559 15.5448 82.0511 15.5448L17.949 15.5448C15.8441 15.5448 14.0625 16.274 12.6042 17.7323C11.1459 19.1906 10.4167 20.9722 10.4167 23.0771L10.4167 66.3458C10.4167 68.4507 11.1459 70.2323 12.6042 71.6906C14.0625 73.149 15.8441 73.8781 17.949 73.8781L82.0511 73.8781ZM94.2302 84.2948L94.2302 78.0448L5.76982 78.0448L5.76982 84.2948L94.2302 84.2948Z" fill="#F7F7F7" fill-opacity="0.5"/>
<path d="M7.77027 80.0448L7.77027 82.2948L92.2302 82.2948L92.2302 80.0448L7.77027 80.0448ZM82.0515 17.5448L17.949 17.5448C16.3623 17.5448 15.093 18.0717 14.0183 19.1464C12.9436 20.221 12.4168 21.4904 12.4167 23.077L12.4168 66.3456C12.4168 67.9322 12.9437 69.2016 14.0183 70.2762C15.093 71.3509 16.3623 71.8778 17.949 71.8778L82.0515 71.8778C83.6379 71.8777 84.9066 71.3507 85.9812 70.2762C87.0559 69.2015 87.5837 67.9322 87.5837 66.3456L87.5837 23.077C87.5837 21.4904 87.0559 20.221 85.9812 19.1464C84.9067 18.072 83.6378 17.5449 82.0515 17.5448Z" stroke="white" stroke-opacity="0.3" stroke-width="4"/>
</g>
</svg>
