<svg width="22" height="22" viewBox="0 0 22 22" fill="none" xmlns="http://www.w3.org/2000/svg">
<mask id="mask0_89_63" style="mask-type:alpha" maskUnits="userSpaceOnUse" x="0" y="0" width="22" height="22">
<rect width="22" height="22" transform="matrix(-1 8.74228e-08 7.54979e-08 1 22 0)" fill="#D9D9D9"/>
</mask>
<g mask="url(#mask0_89_63)">
<path d="M10.3125 11.6875L3.20835 11.6875L3.20836 17.1346C3.20836 17.5903 3.37061 17.9805 3.69511 18.305C4.01961 18.6295 4.40972 18.7917 4.86546 18.7917L10.3125 18.7917L10.3125 11.6875ZM10.3125 10.3125L10.3125 3.20837L4.86546 3.20838C4.40972 3.20838 4.0196 3.37063 3.6951 3.69513C3.3706 4.01963 3.20835 4.40974 3.20835 4.86548L3.20835 10.3125L10.3125 10.3125ZM11.6875 10.3125L18.7917 10.3125L18.7917 4.86548C18.7917 4.40974 18.6294 4.01962 18.3049 3.69512C17.9804 3.37062 17.5903 3.20837 17.1346 3.20837L11.6875 3.20837L11.6875 10.3125ZM11.6875 11.6875L11.6875 18.7917L17.1346 18.7917C17.5903 18.7917 17.9804 18.6295 18.3049 18.305C18.6294 17.9805 18.7917 17.5903 18.7917 17.1346L18.7917 11.6875L11.6875 11.6875Z" fill="#F7F7F7"/>
</g>
</svg>
