<svg width="22" height="22" viewBox="0 0 22 22" fill="none" xmlns="http://www.w3.org/2000/svg">
<mask id="mask0_89_53" style="mask-type:alpha" maskUnits="userSpaceOnUse" x="0" y="0" width="22" height="22">
<rect width="22" height="22" transform="matrix(-1 8.74228e-08 7.54979e-08 1 22 0)" fill="#D9D9D9"/>
</mask>
<g mask="url(#mask0_89_53)">
<path d="M17.1346 18.7917C17.5976 18.7917 17.9896 18.6313 18.3104 18.3105C18.6312 17.9896 18.7917 17.5977 18.7917 17.1346L18.7917 4.86548C18.7917 4.40241 18.6312 4.01046 18.3104 3.68962C17.9896 3.36879 17.5976 3.20837 17.1346 3.20837L4.86543 3.20838C4.40236 3.20838 4.01041 3.36879 3.68957 3.68963C3.36874 4.01046 3.20832 4.40241 3.20832 4.86548L3.20832 17.1346C3.20832 17.5977 3.36874 17.9896 3.68957 18.3105C4.01041 18.6313 4.40236 18.7917 4.86543 18.7917L17.1346 18.7917ZM15.8125 15.3542L6.11714 15.3542L9.13137 11.3351L11.7051 14.6844L13.5385 12.3397L15.8125 15.3542ZM14.2083 8.93754C13.891 8.93754 13.6207 8.82586 13.3975 8.6025C13.1742 8.37929 13.0625 8.10903 13.0625 7.79171C13.0625 7.47439 13.1742 7.20412 13.3975 6.98092C13.6207 6.75755 13.891 6.64587 14.2083 6.64587C14.5256 6.64587 14.7959 6.75755 15.0191 6.98092C15.2425 7.20412 15.3542 7.47439 15.3542 7.79171C15.3542 8.10903 15.2425 8.37929 15.0191 8.6025C14.7959 8.82586 14.5256 8.93754 14.2083 8.93754Z" fill="#F7F7F7"/>
</g>
</svg>
