<svg width="22" height="22" viewBox="0 0 22 22" fill="none" xmlns="http://www.w3.org/2000/svg">
<mask id="mask0_89_68" style="mask-type:alpha" maskUnits="userSpaceOnUse" x="0" y="0" width="22" height="22">
<rect width="22" height="22" transform="matrix(-1 8.74228e-08 7.54979e-08 1 22 0)" fill="#D9D9D9"/>
</mask>
<g mask="url(#mask0_89_68)">
<path d="M11 19.197C11.3679 19.197 11.6932 19.1001 11.9758 18.9062C12.2584 18.7122 12.4561 18.4577 12.5689 18.1429L12.8333 18.1429C13.2083 18.1429 13.5311 18.0074 13.802 17.7365C14.0729 17.4657 14.2083 17.1428 14.2083 16.7679L14.2083 13.7605C15.1333 13.2 15.861 12.4484 16.3916 11.506C16.9222 10.5633 17.1875 9.55438 17.1875 8.47913C17.1875 6.75396 16.5875 5.29142 15.3876 4.0915C14.1877 2.89158 12.7252 2.29163 11 2.29163C9.27483 2.29163 7.81229 2.89158 6.61238 4.0915C5.41246 5.29142 4.8125 6.75396 4.8125 8.47913C4.8125 9.57317 5.0778 10.5868 5.6084 11.5199C6.13899 12.4531 6.86675 13.2 7.79167 13.7605L7.79167 16.7679C7.79167 17.1428 7.92711 17.4657 8.19798 17.7365C8.46886 18.0074 8.79175 18.1429 9.16667 18.1429L9.43113 18.1429C9.54388 18.4577 9.74157 18.7122 10.0242 18.9062C10.3068 19.1001 10.6321 19.197 11 19.197ZM12.8333 16.7679L9.16667 16.7679L9.16667 15.9076L12.8333 15.9076L12.8333 16.7679ZM12.8333 15.0968L9.16667 15.0968L9.16667 14.2083L12.8333 14.2083L12.8333 15.0968ZM10.4534 12.8333L10.4534 10.1644L8.48971 8.20069L9.25833 7.43206L11 9.17373L12.7417 7.43206L13.5103 8.20069L11.5466 10.1644L11.5466 12.8333L10.4534 12.8333Z" fill="#F7F7F7"/>
</g>
</svg>
