<svg width="176" height="99" viewBox="0 0 176 99" fill="none" xmlns="http://www.w3.org/2000/svg">
<g filter="url(#filter0_f_76_1628)">
<path d="M21.5004 72C24.0004 60.8333 31.9004 38.7 43.5004 39.5C58.0004 40.5 50.0004 54 64.0004 54C78.0004 54 78.4936 21.5 97.0004 21.5C126.5 21.5 118.5 65 140 65C143.5 64.6667 151.3 62.5 154.5 56.5" stroke="url(#paint0_linear_76_1628)" stroke-width="3" stroke-linecap="round"/>
<path d="M21.5004 72C24.0004 60.8333 31.9004 38.7 43.5004 39.5C58.0004 40.5 50.0004 54 64.0004 54C78.0004 54 78.4936 21.5 97.0004 21.5C126.5 21.5 118.5 65 140 65C143.5 64.6667 151.3 62.5 154.5 56.5" stroke="black" stroke-opacity="0.2" stroke-width="3" stroke-linecap="round"/>
</g>
<path d="M21.5004 72C24.0004 60.8333 31.9004 38.7 43.5004 39.5C58.0004 40.5 50.0004 54 64.0004 54C78.0004 54 78.4936 21.5 97.0004 21.5C126.5 21.5 118.5 65 140 65C143.5 64.6667 151.3 62.5 154.5 56.5" stroke="url(#paint1_linear_76_1628)" stroke-width="3" stroke-linecap="round"/>
<defs>
<filter id="filter0_f_76_1628" x="0" y="0" width="176.001" height="93.5003" filterUnits="userSpaceOnUse" color-interpolation-filters="sRGB">
<feFlood flood-opacity="0" result="BackgroundImageFix"/>
<feBlend mode="normal" in="SourceGraphic" in2="BackgroundImageFix" result="shape"/>
<feGaussianBlur stdDeviation="10" result="effect1_foregroundBlur_76_1628"/>
</filter>
<linearGradient id="paint0_linear_76_1628" x1="21.5004" y1="46.75" x2="154.5" y2="46.75" gradientUnits="userSpaceOnUse">
<stop stop-color="#B4878E"/>
<stop offset="0.152166" stop-color="#994049"/>
<stop offset="0.317308" stop-color="#872439"/>
<stop offset="0.552765" stop-color="#9F4A8D"/>
<stop offset="0.855769" stop-color="#8D85AE"/>
<stop offset="1" stop-color="#9D9BA8"/>
</linearGradient>
<linearGradient id="paint1_linear_76_1628" x1="21.5004" y1="46.75" x2="154.5" y2="46.75" gradientUnits="userSpaceOnUse">
<stop stop-color="#B4878E"/>
<stop offset="0.152166" stop-color="#994049"/>
<stop offset="0.317308" stop-color="#872439"/>
<stop offset="0.552765" stop-color="#9F4A8D"/>
<stop offset="0.855769" stop-color="#8D85AE"/>
<stop offset="1" stop-color="#9D9BA8"/>
</linearGradient>
</defs>
</svg>
