<svg width="100" height="100" viewBox="0 0 100 100" fill="none" xmlns="http://www.w3.org/2000/svg">
<mask id="mask0_80_1866" style="mask-type:alpha" maskUnits="userSpaceOnUse" x="0" y="0" width="100" height="100">
<rect x="7.54979e-06" width="100" height="100" fill="#D9D9D9"/>
</mask>
<g mask="url(#mask0_80_1866)">
<path d="M17.9489 85.4167C15.8441 85.4167 14.0625 84.6875 12.6041 83.2292C11.1458 81.7708 10.4166 79.9892 10.4166 77.8844L10.4166 34.6156C10.4166 32.5108 11.1458 30.7292 12.6041 29.2708C14.0625 27.8125 15.8441 27.0833 17.9489 27.0833L35.4166 27.0833L35.4166 20.0323C35.4166 17.9274 36.1458 16.1458 37.6041 14.6875C39.0625 13.2292 40.8441 12.5 42.9489 12.5L57.051 12.5C59.1559 12.5 60.9375 13.2292 62.3958 14.6875C63.8541 16.1458 64.5833 17.9274 64.5833 20.0323L64.5833 27.0833L82.051 27.0833C84.1559 27.0833 85.9375 27.8125 87.3958 29.2708C88.8541 30.7292 89.5833 32.5108 89.5833 34.6156L89.5833 77.8844C89.5833 79.9892 88.8541 81.7708 87.3958 83.2292C85.9375 84.6875 84.1559 85.4167 82.051 85.4167L17.9489 85.4167ZM41.6666 27.0833L58.3333 27.0833L58.3333 20.0323C58.3333 19.7115 58.1996 19.4177 57.9323 19.151C57.6656 18.8837 57.3718 18.75 57.051 18.75L42.9489 18.75C42.6281 18.75 42.3343 18.8837 42.0677 19.151C41.8003 19.4177 41.6666 19.7115 41.6666 20.0323L41.6666 27.0833Z" fill="#F7F7F7" fill-opacity="0.5"/>
<path d="M42.9489 14.5L57.0514 14.5C58.6379 14.5001 59.9075 15.027 60.9821 16.1016C62.0566 17.1762 62.5836 18.4457 62.5836 20.0322L62.5836 29.083L82.0514 29.083C83.6379 29.0831 84.9075 29.61 85.9821 30.6846C87.0567 31.7592 87.5835 33.0287 87.5836 34.6152L87.5836 77.8848C87.5835 79.4713 87.0567 80.7408 85.9821 81.8154C84.9075 82.89 83.6379 83.4169 82.0514 83.417L17.9489 83.417C16.3623 83.417 15.0928 82.89 14.0182 81.8154C12.9436 80.7408 12.4167 79.4713 12.4166 77.8848L12.4166 34.6152C12.4167 33.0287 12.9436 31.7592 14.0182 30.6846C15.0928 29.61 16.3623 29.083 17.9489 29.083L37.4166 29.083L37.4166 20.0322C37.4166 18.4456 37.9435 17.1762 39.0182 16.1016C40.0929 15.0269 41.3622 14.5 42.9489 14.5ZM42.9489 16.75C42.0052 16.75 41.225 17.1652 40.6549 17.7354C40.0833 18.3057 39.6667 19.0869 39.6666 20.0322L39.6666 29.083L60.3336 29.083L60.3336 20.0322C60.3336 19.0884 59.9176 18.3084 59.3473 17.7383L59.3483 17.7383C58.778 17.1666 57.9967 16.7501 57.0514 16.75L42.9489 16.75Z" stroke="white" stroke-opacity="0.3" stroke-width="4"/>
</g>
</svg>
