<svg width="100" height="100" viewBox="0 0 100 100" fill="none" xmlns="http://www.w3.org/2000/svg">
<mask id="mask0_80_1844" style="mask-type:alpha" maskUnits="userSpaceOnUse" x="0" y="0" width="100" height="100">
<rect x="7.54979e-06" width="100" height="100" fill="#D9D9D9"/>
</mask>
<g mask="url(#mask0_80_1844)">
<path d="M26.2823 89.5833C24.1774 89.5833 22.3958 88.8542 20.9375 87.3958C19.4792 85.9375 18.75 84.1559 18.75 82.051L18.75 17.9489C18.75 15.8441 19.4792 14.0625 20.9375 12.6042C22.3958 11.1458 24.1774 10.4167 26.2823 10.4167L73.7177 10.4167C75.8226 10.4167 77.6042 11.1458 79.0625 12.6042C80.5208 14.0625 81.25 15.8441 81.25 17.949L81.25 82.051C81.25 84.1559 80.5208 85.9375 79.0625 87.3958C77.6042 88.8542 75.8226 89.5833 73.7177 89.5833L26.2823 89.5833ZM47.9167 43.9906L57.2917 38.3812L66.6667 43.9906L66.6667 16.6667L47.9167 16.6667L47.9167 43.9906Z" fill="#F7F7F7" fill-opacity="0.5"/>
<path d="M26.2822 12.4167L73.7178 12.4167C75.3044 12.4167 76.5738 12.9436 77.6484 14.0182C78.7231 15.0929 79.25 16.3622 79.25 17.9489L79.25 82.0514C79.2499 83.6379 78.723 84.9075 77.6484 85.9821C76.5738 87.0567 75.3043 87.5836 73.7178 87.5837L26.2822 87.5836C24.6957 87.5836 23.4262 87.0567 22.3516 85.9821C21.277 84.9075 20.7501 83.6379 20.75 82.0514L20.75 17.9489C20.75 16.3622 21.2769 15.0929 22.3516 14.0182C23.4262 12.9435 24.6956 12.4167 26.2822 12.4167ZM45.917 47.5182L48.9434 45.7067L57.291 40.7116L65.6397 45.7067L68.667 47.5182L68.667 14.6667L45.917 14.6667L45.917 47.5182Z" stroke="white" stroke-opacity="0.3" stroke-width="4"/>
</g>
</svg>
